<svg width="8" height="8" viewBox="0 0 8 8" fill="none" xmlns="http://www.w3.org/2000/svg">
<path d="M0.55943 0.559467C0.250507 0.86839 0.250452 1.36935 0.55943 1.67833L6.32168 7.44058C6.63066 7.74956 7.13162 7.7495 7.44054 7.44058C7.74946 7.13165 7.74952 6.6307 7.44054 6.32172L1.67829 0.559467C1.36931 0.250489 0.868353 0.250543 0.55943 0.559467Z" fill="#00478E"/>
<path d="M7.44078 0.55943C7.13185 0.250507 6.6309 0.250452 6.32192 0.55943L0.559665 6.32168C0.250687 6.63066 0.250744 7.13162 0.559667 7.44054C0.86859 7.74946 1.36955 7.74952 1.67852 7.44054L7.44078 1.67829C7.74976 1.36931 7.7497 0.868353 7.44078 0.55943Z" fill="#00478E"/>
</svg>
